<?xml version="1.0" encoding="UTF-8"?>
<!DOCTYPE svg PUBLIC "-//W3C//DTD SVG 1.1//EN" "http://www.w3.org/Graphics/SVG/1.1/DTD/svg11.dtd">
<!-- Creator: CorelDRAW -->
<svg xmlns="http://www.w3.org/2000/svg" xml:space="preserve" width="2.3705mm" height="2.1166mm" version="1.1" style="shape-rendering:geometricPrecision; text-rendering:geometricPrecision; image-rendering:optimizeQuality; fill-rule:evenodd; clip-rule:evenodd"
viewBox="0 0 1.16 1.03"
 xmlns:xlink="http://www.w3.org/1999/xlink"
 xmlns:xodm="http://www.corel.com/coreldraw/odm/2003">
 <defs>
  <style type="text/css">
   <![CDATA[
    .fil0 {fill:#332C2B}
   ]]>
  </style>
 </defs>
 <g id="Layer_x0020_1">
  <metadata id="CorelCorpID_0Corel-Layer"/>
  <path class="fil0" d="M0.34 0.75c0,-0 0.02,-0 0.02,0 0,0.01 0,0.02 0,0.03l0.01 0.08c0,0.01 0,0.01 -0,0.03 -0,0.01 -0.01,0.02 -0.01,0.02 -0.01,0.02 -0.01,0.03 -0.02,0.05 -0,-0 -0.01,-0.04 -0.02,-0.04 -0,-0.01 -0.01,-0.02 -0.01,-0.02 -0,-0.01 -0,-0.01 -0,-0.03 0,-0.01 0.01,-0.11 0.01,-0.11zm-0.21 0.24l-0.09 0c-0,-0.01 -0,-0.06 -0,-0.07 0,-0.02 0,-0.05 0,-0.07 -0,-0.05 -0,-0.08 0.02,-0.13 0,-0 0,-0.01 0.01,-0.01 0,-0 0,-0.01 0.01,-0.01l0.01 -0.01c0,-0 0.01,-0.01 0.01,-0.01 0.03,-0.03 0.05,-0.03 0.09,-0.05 0.01,-0 0.02,-0.01 0.03,-0.01 0.01,-0 0.02,-0.01 0.03,-0.01 0,0.02 0,0.04 0.01,0.05 0.02,0.1 0.03,0.18 0.07,0.28l0.02 0.04 -0.16 -0 -0 -0.15c0,-0.01 0,-0.02 -0,-0.02 -0.01,-0.01 -0.02,-0.01 -0.03,-0 -0,0.01 -0,0.01 -0,0.02 0,0.01 0,0.14 -0,0.15zm0.58 -0.21c0.02,0 0.03,0 0.04,0 0.01,0 0.02,0.01 0.04,0.01 0.01,0 0.02,0.01 0.03,0.02 0.01,0.01 0.02,0.02 0.03,0.02 0.01,-0 0.02,-0.01 0.03,-0.02 0.01,-0.01 0.02,-0.01 0.03,-0.02 0.01,-0 0.03,-0.01 0.04,-0.01 0.01,-0 0.04,-0 0.05,-0 0,0.01 0.01,0.02 0.01,0.02 0,0.01 0.01,0.02 0.01,0.03 0.01,0.05 -0.01,0.07 -0.02,0.1 -0.01,0.02 -0.01,0.04 -0.01,0.06l-0.25 -0c0,-0.02 -0.01,-0.05 -0.02,-0.07 -0.01,-0.01 -0,-0.01 -0,-0.02l0 -0.09c0,-0.01 -0,-0.02 -0,-0.03zm0.33 -0l0.08 0 0 0.21 -0.08 0c-0,-0.02 -0,-0.04 0,-0.06 0,-0.01 0,-0.01 0,-0.01 0.02,-0.04 0.02,-0.07 0.01,-0.11l-0.01 -0.02zm-0.64 -0.01c-0,-0 -0,-0.03 -0.01,-0.04 -0,-0.01 -0,-0.01 -0,-0.02 0,-0 0.01,-0.01 0.01,-0.01 0,0 0.01,0 0.01,0.01 0,0 -0.01,0.06 -0.01,0.06zm-0.12 -0.06c0,-0 0.01,-0.01 0.01,-0.01 0,0.01 0,0.01 0.01,0.01 0,0 -0,0.01 -0,0.02 -0,0.01 -0,0.02 -0.01,0.04l-0.01 -0.06zm0.04 -0.03c0,-0 0.01,-0.01 0.02,-0.02 0,-0 0,-0 0.01,-0 0,0 0.02,0.02 0.02,0.02 -0,0 -0.01,0.02 -0.01,0.03l-0.02 0 -0.01 -0.03zm0.34 0.31l-0.09 -0c-0,-0.01 -0,-0.14 -0,-0.15 0,-0.01 0,-0.02 -0,-0.02 -0.01,-0.01 -0.02,-0.01 -0.03,-0 -0,0.01 -0,0.01 -0,0.02l0 0.15 -0.17 0 0.02 -0.04c0.02,-0.06 0.05,-0.16 0.06,-0.23l0.02 -0.1 0.05 0.02c0.03,0.01 0.07,0.02 0.1,0.05 0.01,0.01 0.02,0.02 0.03,0.04 0.02,0.04 0.02,0.07 0.02,0.13 0,0.02 0,0.05 0,0.07 -0,0.01 0,0.07 -0,0.07zm0.12 -0.42l0 -0.03c0,0 0,0 0.01,0 0,0 0,0 0.01,0 0.01,0 0.03,0.01 0.04,0.01 0.02,0 0.04,-0 0.05,-0.01 -0,0.01 -0,0.04 0,0.05 0.01,0.02 0.02,0.02 0.04,0.03 0.05,0.02 0.1,0.02 0.13,0.06 0.01,0.01 0.01,0.02 0.02,0.03 0,0.01 0.01,0.03 0.01,0.04l-0.13 -0c-0.05,-0 -0.08,0.01 -0.12,0.03l-0.01 0.01 -0.01 -0.01c-0.01,-0 -0.01,-0.01 -0.02,-0.01 -0.01,-0.01 -0.02,-0.01 -0.03,-0.01 -0.03,-0.01 -0.05,-0.01 -0.08,-0.01 -0.01,-0.01 -0,-0.02 -0.02,-0.05 -0.01,-0.01 -0.02,-0.03 -0.03,-0.04 0.01,-0.01 0.07,-0.03 0.08,-0.03 0.02,-0.01 0.05,-0.01 0.06,-0.03 0.01,-0.01 0.01,-0.01 0.01,-0.02zm-0.53 0.04l0.04 0.02c0,0 0,0 0.01,0l0.01 0c0,0 0,0 0,0 -0,0 -0,0 -0.01,0.01l-0.04 0.03 -0.01 -0.07zm0.15 0.07l-0.03 -0.03c-0,-0 -0.01,-0.01 -0.01,-0.01 0.01,-0.01 0.03,-0.02 0.04,-0.02 0,-0 0.01,-0.01 0.01,-0.01 -0,0.01 -0,0.02 -0,0.04 -0,0.01 -0,0.03 -0.01,0.04zm-0.14 -0.14c0.01,0 0.02,0.01 0.03,0.01 0.02,0.01 0.05,0.01 0.07,-0 0,-0 0.01,-0 0.01,-0 0,-0 0.01,-0 0.01,-0.01 -0,0.04 0.01,0.03 -0.02,0.05 -0,0 -0.04,0.03 -0.04,0.02l-0.02 -0.01c-0.01,-0.01 -0.02,-0.01 -0.03,-0.02 -0,-0 -0.01,-0 -0.01,-0.01 -0,-0.01 -0,-0.03 -0,-0.04zm0.66 -0l-0 -0.01c0.02,-0.01 0.02,-0.02 0.04,-0.04 0.01,-0.01 0.01,-0.01 0.01,-0.02 0.01,-0.01 0.01,-0.02 0.01,-0.03 0,0.01 0,0.07 0,0.08 -0,0.01 -0.01,0.02 -0.02,0.02 -0.01,0 -0.03,0 -0.04,0zm-0.24 -0.1c0,0 0,0.01 0.01,0.01 0,0 0,0.01 0.01,0.01 0.01,0.02 0.01,0.02 0.02,0.03 0,0.01 0.02,0.01 0.02,0.02 0.01,0 0,0 0,0.02 -0.01,-0 -0.03,0 -0.04,-0 -0.01,-0 -0.01,-0 -0.01,-0 -0,-0 -0.01,-0.01 -0.01,-0.01 -0,-0.01 -0,-0.07 0,-0.08zm-0.53 -0.08c-0.01,-0 -0.02,-0.01 -0.02,-0.03 -0,-0.02 0.01,-0.03 0.02,-0.03 -0,0.01 -0,0.05 0,0.06zm0.36 0c0,-0.03 0,-0.04 0,-0.06 0.01,0 0.02,0.01 0.02,0.03 -0,0.01 -0.01,0.03 -0.02,0.03zm-0.32 -0.06c0,-0 0.01,-0.01 0.01,-0.01 0,-0 0.01,-0.01 0.01,-0.01 0.02,-0.02 0.01,-0.02 0.02,-0.02 0.06,0 0.11,-0.01 0.16,-0.04l0.02 -0.02c0,0 0,0.01 0,0.01 0,0.01 0.01,0.02 0.02,0.03 0.01,0.02 0.02,0.02 0.03,0.04 0,0.01 -0,0.03 -0,0.05 -0,0.06 -0.02,0.12 -0.07,0.16 -0.04,0.03 -0.09,0.03 -0.14,-0 -0,-0 -0.01,-0.01 -0.01,-0.01 -0.01,-0.01 -0.01,-0.01 -0.02,-0.02 -0.02,-0.02 -0.04,-0.06 -0.04,-0.09 -0,-0.02 -0.01,-0.07 -0.01,-0.09zm0.51 0.01c0,-0 0.01,-0 0.02,-0.01 0.02,-0.01 0.04,-0.01 0.05,-0.02l0.02 -0.01c0.01,-0.01 0.03,-0.03 0.04,-0.04 0,0 0,0 0,0l0.01 0.01c0,0.01 0.01,0.01 0.01,0.01 0.01,0.01 0.02,0.02 0.03,0.02 0.01,0 0.01,0.01 0.02,0.01 0.01,0 0.01,0.01 0.02,0.01l0.04 0.01c0,0.01 0,0.03 0,0.04 -0,0.02 -0,0.05 -0.01,0.07 -0.01,0.02 -0.02,0.05 -0.04,0.06 -0,0 -0.01,0.01 -0.01,0.01 -0.04,0.03 -0.08,0.03 -0.12,0.01 -0.04,-0.02 -0.06,-0.05 -0.07,-0.1 -0.01,-0.03 -0.01,-0.06 -0.01,-0.1zm-0.11 0.32c0,-0.01 0,-0.03 0.01,-0.04 0,-0.01 0,-0.03 0.01,-0.04 0,-0.03 0.01,-0.06 0.01,-0.09 0.01,-0.06 0.02,-0.12 0.03,-0.17 0.01,-0.03 0.02,-0.05 0.03,-0.07 0.02,-0.03 0.03,-0.05 0.06,-0.07 0,-0 0.01,-0.01 0.01,-0.01 0.01,-0.01 0.02,-0.01 0.03,-0.02 0.07,-0.03 0.14,-0.01 0.2,0.04 0.04,0.04 0.06,0.1 0.08,0.16 0.01,0.05 0.02,0.12 0.03,0.17 0,0.03 0.01,0.06 0.01,0.09l0.01 0.07c0,0.01 0,0.01 -0,0.02 -0,-0 -0.01,-0.01 -0.01,-0.01 -0.03,-0.03 -0.08,-0.04 -0.12,-0.05 -0.01,-0 -0.02,-0 -0.02,-0.01 -0.01,-0 -0.02,-0 -0.02,-0.01 0,-0 0.03,-0 0.04,-0 0.02,-0 0.04,-0.01 0.05,-0.04 0.01,-0.01 0.01,-0.02 0.01,-0.04 0,-0.06 -0,-0.11 -0.01,-0.17 -0,-0.01 -0,-0.03 -0,-0.04 -0,-0.01 -0.01,-0.02 -0.02,-0.02 -0.05,-0.01 -0.09,-0.02 -0.12,-0.05 -0.01,-0.01 -0.01,-0.01 -0.02,-0.02 -0,-0 -0.01,-0.01 -0.01,-0.01 -0.01,-0.01 -0.02,-0.01 -0.03,-0.01 -0,0 -0.01,0.01 -0.01,0.01 -0.02,0.03 -0.04,0.05 -0.07,0.06 -0.02,0.01 -0.04,0.02 -0.06,0.02 -0.01,0 -0.02,0.01 -0.02,0.02 -0,0.01 -0,0.03 -0,0.04 -0,0.06 -0.01,0.11 -0.01,0.17 0,0.01 0,0.03 0.01,0.04 0.01,0.02 0.03,0.03 0.05,0.03 0.01,0 0.03,0 0.04,0 -0,0.01 -0,0.01 -0.01,0.01 -0.02,0.01 -0.07,0.02 -0.1,0.03 -0.01,0 -0.02,0.01 -0.02,0.01 -0,0 -0.01,0 -0.01,0.01l-0.01 -0.01zm-0.09 -0.37c-0.01,0 -0.02,-0.01 -0.02,-0.02 -0.01,-0.01 -0.01,-0.02 -0.01,-0.03 -0,-0.01 -0.01,-0.02 -0.01,-0.03 -0,-0.01 -0,-0.02 -0.02,-0.03 -0.01,-0 -0.02,0 -0.02,0.01 -0,0 -0,0 -0.01,0 -0.01,0.01 -0.02,0.01 -0.02,0.02 -0.04,0.03 -0.08,0.03 -0.14,0.04 -0.03,0 -0.04,-0.01 -0.05,0.01 -0,0 -0.01,0.01 -0.01,0.01 -0,0 -0.02,0.02 -0.03,0.02 -0,0 -0,-0 -0,-0.01 -0,-0.03 -0.01,-0.09 0,-0.11 0.01,-0.02 0.01,-0.03 0.03,-0.04 0.02,-0.02 0.04,-0.03 0.07,-0.04 0.04,-0.01 0.1,-0.03 0.15,-0.02 0.04,0 0.02,0.02 0.03,0.04 0.01,0.02 0.05,0 0.07,0.04 0.01,0.02 0.01,0.04 0.01,0.07 -0,0.02 -0.01,0.06 -0.01,0.08zm0 0.13c0,-0 0.01,-0 0.02,-0 0.05,-0.01 0.06,-0.07 0.04,-0.11 -0.01,-0.02 -0.02,-0.01 -0.02,-0.02 0,-0.02 0.01,-0.04 0.01,-0.07 0,-0.04 0.01,-0.07 -0.01,-0.1 -0.01,-0.02 -0.02,-0.03 -0.04,-0.04 -0.01,-0 -0.02,-0.01 -0.03,-0.01 -0.01,-0 -0.01,0 -0.01,-0.01 -0,-0.01 -0,-0.01 -0.01,-0.01 -0.02,-0.04 -0.11,-0.03 -0.15,-0.02 -0.04,0.01 -0.09,0.02 -0.12,0.05 -0.01,0.01 -0.02,0.02 -0.03,0.03 -0.01,0.02 -0.02,0.03 -0.03,0.05 -0.01,0.03 -0.01,0.09 -0.01,0.12 0,0 0,0.01 0,0.02 -0,0 -0.01,0 -0.01,0.01 -0.02,0.02 -0.03,0.05 -0.02,0.07 0.01,0.02 0.02,0.04 0.04,0.04 0.03,0.01 0.02,-0 0.03,0.01 0.01,0.04 0.02,0.06 0.05,0.09 0.01,0.01 0.02,0.02 0.03,0.02 -0,0.01 0,0.05 -0,0.06 -0,0 -0.04,0.02 -0.05,0.02 -0.02,0.01 -0.03,0.01 -0.05,0.02 -0.02,0.01 -0.03,0.01 -0.05,0.02 -0.01,0.01 -0.03,0.02 -0.04,0.03 -0,0 -0.01,0.01 -0.01,0.01l-0.01 0.01c-0.03,0.04 -0.04,0.08 -0.04,0.14 0,0.06 0,0.12 -0,0.18 -0,0.01 0,0.02 0.01,0.03l0 0c0,0 0,0 0.01,0 0.01,0.01 0.03,0 0.05,0 0.02,-0 0.05,-0 0.07,-0 0.09,0 0.18,-0 0.28,0 0.18,0 0.37,-0 0.55,0 0.05,0 0.09,0 0.14,-0 0.02,-0 0.04,0 0.05,-0.02 0.01,-0.01 0,-0.02 0,-0.03l0 -0.18c0,-0.04 -0,-0.07 -0.02,-0.11 -0,-0 -0,-0.01 -0.01,-0.01 0,-0 0,-0 0.01,-0.01 0,-0 0,-0 0.01,-0.01 0,-0.01 0.01,-0.01 0.01,-0.02 0,-0.02 -0.02,-0.13 -0.02,-0.15 -0.01,-0.05 -0.01,-0.1 -0.02,-0.15 -0.01,-0.06 -0.03,-0.12 -0.05,-0.17 -0.02,-0.03 -0.04,-0.06 -0.06,-0.08 -0.05,-0.04 -0.12,-0.06 -0.19,-0.04 -0.02,0 -0.03,0.01 -0.04,0.01 -0.01,0 -0.01,0.01 -0.02,0.01 -0.02,0.01 -0.04,0.03 -0.05,0.04 -0,0 -0,0 -0.01,0.01 -0.03,0.04 -0.05,0.08 -0.06,0.13 -0.02,0.08 -0.03,0.16 -0.04,0.24 -0,0.02 -0,0.03 -0.01,0.05 -0,0.02 -0.01,0.03 -0.01,0.05 -0,0 -0.05,-0.02 -0.06,-0.02 -0.01,-0 -0.05,-0.02 -0.06,-0.02 -0,-0.01 -0,-0.02 -0,-0.03 0,-0.01 -0,-0.02 -0,-0.02 0,-0 0,-0 0,-0l0.01 -0.01c0.01,-0.01 0.02,-0.02 0.02,-0.03 0.01,-0.02 0.02,-0.03 0.02,-0.05 0,-0 0.01,-0.02 0.01,-0.02z"/>
 </g>
</svg>
